<svg width="190" height="25" viewBox="0 0 190 25" fill="none" xmlns="http://www.w3.org/2000/svg">
<path d="M0.7 25V0.267999H7.144V19.708H19.708V25H0.7ZM23.1297 25V0.267999H29.5737V25H23.1297ZM34.9773 25V0.267999H44.3733L47.3613 11.284C47.4813 11.668 47.6253 12.196 47.7933 12.868C47.9613 13.516 48.1293 14.2 48.2973 14.92C48.4653 15.64 48.6093 16.288 48.7293 16.864H49.0173C49.1133 16.408 49.2333 15.868 49.3773 15.244C49.5213 14.596 49.6773 13.924 49.8453 13.228C50.0133 12.508 50.1693 11.848 50.3133 11.248L53.3373 0.267999H62.4813V25H56.2173V14.452C56.2173 13.42 56.2173 12.376 56.2173 11.32C56.2413 10.264 56.2653 9.304 56.2893 8.44C56.3133 7.576 56.3253 6.952 56.3253 6.568H56.0373C55.9653 6.928 55.8453 7.456 55.6773 8.152C55.5333 8.824 55.3653 9.532 55.1733 10.276C55.0053 10.996 54.8493 11.62 54.7053 12.148L51.1053 25H45.9213L42.2853 12.148C42.1653 11.668 42.0213 11.092 41.8533 10.42C41.6853 9.748 41.5173 9.064 41.3493 8.368C41.2053 7.672 41.0733 7.084 40.9533 6.604H40.6653C40.6893 7.228 40.7133 7.996 40.7373 8.908C40.7613 9.796 40.7853 10.732 40.8093 11.716C40.8333 12.676 40.8453 13.588 40.8453 14.452V25H34.9773ZM67.8836 25V0.267999H86.8556V5.308H74.3276V10.636H85.3436V15.568H74.3276V25H67.8836ZM91.0181 25V0.267999H111.43V5.308H97.4621V9.952H109.666V14.884H97.4621V19.96H111.682V25H91.0181ZM116.118 25V0.267999H130.482C132.306 0.267999 133.83 0.615999 135.054 1.312C136.278 1.984 137.19 2.92 137.79 4.12C138.414 5.296 138.726 6.616 138.726 8.08C138.726 9.664 138.354 11.08 137.61 12.328C136.89 13.552 135.87 14.512 134.55 15.208L139.518 25H132.318L128.214 16.288H122.562V25H116.118ZM122.562 11.5H129.222C130.11 11.5 130.818 11.212 131.346 10.636C131.898 10.036 132.174 9.244 132.174 8.26C132.174 7.612 132.054 7.06 131.814 6.604C131.574 6.148 131.238 5.8 130.806 5.56C130.374 5.296 129.846 5.164 129.222 5.164H122.562V11.5ZM148.818 25V5.56H140.79V0.267999H163.29V5.56H155.262V25H148.818ZM166.919 25V0.267999H173.363V9.772H183.407V0.267999H189.851V25H183.407V15.028H173.363V25H166.919Z" fill="#971A50"/>
</svg>
