<svg width="73" height="73" viewBox="0 0 73 73" fill="none" xmlns="http://www.w3.org/2000/svg">
<circle cx="36.007" cy="37.9796" r="8.38515" fill="#8B0202"/>
<path d="M48.2839 72.0137C50.4931 72.0137 52.3081 70.2172 52.0594 68.0221C51.8564 66.2293 51.5167 64.4721 51.0449 62.7847C50.2269 59.8588 49.028 57.2002 47.5165 54.9607C46.005 52.7213 44.2107 50.9449 42.2358 49.7329C40.261 48.521 37.0593 50.392 34.9217 50.392C32.7842 50.392 31.7527 48.521 29.7779 49.7329C27.8031 50.9449 26.0087 52.7213 24.4973 54.9607C22.9858 57.2002 21.7868 59.8588 20.9688 62.7847C20.4971 64.4721 20.1574 66.2293 19.9543 68.0221C19.7057 70.2172 21.5207 72.0137 23.7298 72.0137L36.0069 72.0137L48.2839 72.0137Z" fill="#400927"/>
<path d="M71.7899 36.1968C72.4583 34.0912 71.2952 31.8181 69.1287 31.3865C67.316 31.0254 65.4954 30.8095 63.7026 30.7451C60.625 30.6346 57.6895 30.9727 55.0635 31.74C52.4376 32.5074 50.1727 33.689 48.3982 35.2175C46.6237 36.7459 47.4539 40.4008 46.801 42.4576C46.1481 44.5144 44.0248 44.9329 44.5928 47.205C45.1609 49.4771 46.3295 51.7487 48.0321 53.8901C49.7346 56.0315 51.9377 58.0008 54.5155 59.6856C56.0173 60.667 57.629 61.5407 59.3181 62.2912C61.3369 63.1882 63.5981 62.0022 64.2665 59.8966L68.0282 48.0467L71.7899 36.1968Z" fill="#400927"/>
<path d="M48.1623 2.38734C46.3897 1.06885 43.8617 1.42716 42.7472 3.33455C41.8147 4.93037 41.0169 6.58103 40.3714 8.25487C39.2634 11.1282 38.6257 14.0135 38.4948 16.7461C38.3639 19.4787 38.7424 22.0051 39.6087 24.1811C40.4749 26.357 44.2007 26.764 45.9322 28.0519C47.6637 29.3399 47.3669 31.4836 49.7 31.6875C52.0331 31.8914 54.5617 31.5273 57.1412 30.6162C59.7208 29.705 62.3008 28.2645 64.7341 26.3769C66.1516 25.2774 67.5031 24.0386 68.7634 22.6866C70.2697 21.0706 69.8859 18.5463 68.1133 17.2278L58.1378 9.8076L48.1623 2.38734Z" fill="#400927"/>
<path d="M5.537 59.0346C5.96074 61.2027 8.07177 62.639 10.1798 61.9782C11.9434 61.4254 13.6444 60.7414 15.2483 59.9377C18.0016 58.5582 20.415 56.8532 22.3508 54.92C24.2866 52.9869 25.7069 50.8635 26.5305 48.6711C27.3542 46.4787 24.8723 43.6703 24.4583 41.5524C24.0444 39.4345 25.7066 38.0486 24.1181 36.3276C22.5296 34.6067 20.4144 33.1743 17.8932 32.1122C15.372 31.0502 12.4942 30.3793 9.42412 30.1379C7.63565 29.9973 5.80233 30.004 3.96031 30.1559C1.75864 30.3374 0.343729 32.4628 0.767474 34.6309L3.15224 46.8328L5.537 59.0346Z" fill="#400927"/>
<path d="M8.20303 16.59C6.39522 17.8597 5.94273 20.3726 7.40443 22.029C8.62737 23.4148 9.94461 24.69 11.3316 25.8278C13.7125 27.781 16.2524 29.2912 18.8061 30.2724C21.3599 31.2535 23.8776 31.6863 26.2154 31.5461C28.5532 31.4059 30.1079 27.9956 31.8739 26.7553C33.6398 25.5151 35.5823 26.469 36.5076 24.3175C37.4328 22.166 37.88 19.6509 37.8237 16.9157C37.7673 14.1806 37.2085 11.2789 36.1792 8.37648C35.5796 6.68567 34.8271 5.01388 33.9385 3.39324C32.8763 1.45618 30.359 1.02909 28.5512 2.29878L18.3771 9.44438L8.20303 16.59Z" fill="#400927"/>
</svg>
